<?xml version="1.0" standalone="no"?>
<!DOCTYPE svg PUBLIC "-//W3C//DTD SVG 20010904//EN"
 "http://www.w3.org/TR/2001/REC-SVG-20010904/DTD/svg10.dtd">
<svg version="1.0" xmlns="http://www.w3.org/2000/svg"
 width="500.000000pt" height="500.000000pt" viewBox="0 0 500.000000 500.000000"
 preserveAspectRatio="xMidYMid meet">

<g transform="translate(0.000000,500.000000) scale(0.100000,-0.100000)"
fill="#000000" stroke="none">
<path d="M1023 4564 l-113 -191 0 -360 0 -360 121 -104 c67 -57 129 -111 139
-119 93 -79 178 -153 455 -394 176 -154 322 -282 325 -286 3 -3 82 -73 175
-155 94 -81 182 -159 196 -172 l26 -23 166 145 c92 81 167 148 167 150 0 2
-188 167 -417 367 -467 406 -483 420 -856 747 l-267 233 -2 357 -3 356 -112
-191z"/>
<path d="M2280 4016 c14 -14 111 -99 215 -190 l190 -166 590 0 590 0 112 190
111 190 -916 0 -917 0 25 -24z"/>
<path d="M3365 2322 c-22 -20 -175 -154 -339 -297 -165 -143 -405 -352 -534
-465 l-235 -205 102 -3 102 -3 82 74 c45 40 118 105 162 143 45 38 153 132
241 209 88 77 184 160 213 184 29 25 59 58 68 75 9 17 19 33 22 36 3 3 12 16
20 30 45 79 126 218 139 238 22 33 2 26 -43 -16z"/>
<path d="M1023 1142 l-113 -190 0 -362 0 -362 773 6 c424 3 1089 6 1477 6
l705 0 111 188 112 187 -1474 3 -1474 2 -2 356 -3 355 -112 -189z"/>
</g>
</svg>
